<svg 
 xmlns="http://www.w3.org/2000/svg"
 xmlns:xlink="http://www.w3.org/1999/xlink"
 width="1241px" height="329px">
<defs>
<linearGradient id="PSgrad_0" x1="0%" x2="100%" y1="0%" y2="0%">
  <stop offset="0%" stop-color="rgb(109,214,236)" stop-opacity="1" />
  <stop offset="100%" stop-color="rgb(220,125,251)" stop-opacity="1" />
</linearGradient>
<linearGradient id="PSgrad_1" x1="0%" x2="0%" y1="100%" y2="0%">
  <stop offset="0%" stop-color="rgb(201,152,123)" stop-opacity="1" />
  <stop offset="100%" stop-color="rgb(255,255,255)" stop-opacity="1" />
</linearGradient>
<linearGradient id="PSgrad_2" x1="100%" x2="0%" y1="0%" y2="0%">
  <stop offset="0%" stop-color="rgb(109,214,236)" stop-opacity="1" />
  <stop offset="100%" stop-color="rgb(220,125,251)" stop-opacity="1" />
</linearGradient>
<linearGradient id="PSgrad_3" x1="0%" x2="100%" y1="0%" y2="0%">
  <stop offset="0%" stop-color="rgb(220,125,251)" stop-opacity="0.77" />
  <stop offset="100%" stop-color="rgb(109,214,236)" stop-opacity="0.77" />
</linearGradient>

</defs>
<path fill-rule="evenodd"  opacity="0.949" fill="rgb(255, 255, 255)"
 d="M1197.904,86.440 C1197.904,91.640 1193.604,95.941 1188.403,95.941 L1161.502,95.941 L1161.502,88.340 L1172.602,88.340 C1174.202,88.340 1175.502,87.040 1175.502,85.540 L1175.502,70.439 L1138.900,70.439 L1138.900,62.839 L1175.902,62.839 L1189.703,46.938 L1149.001,46.938 L1149.001,39.337 L1220.805,39.337 L1201.104,62.839 L1233.006,62.839 L1233.006,70.439 L1197.904,70.439 L1197.904,86.440 ZM1211.605,23.136 L1160.301,23.136 L1160.301,36.337 L1138.900,36.337 L1138.900,15.536 L1144.500,15.536 L1141.100,1.535 L1162.702,1.535 L1166.202,15.536 L1175.802,15.536 L1172.402,1.535 L1194.104,1.535 L1197.404,15.536 L1204.504,15.536 L1208.004,1.535 L1229.706,1.535 L1226.205,15.536 L1233.006,15.536 L1233.006,36.337 L1211.605,36.337 L1211.605,23.136 ZM1142.603,186.039 L1134.502,186.039 L1133.102,145.236 L1141.203,145.236 L1142.603,186.039 ZM1109.201,216.041 L1112.801,186.739 L1112.801,121.435 L1132.002,121.435 L1132.002,186.739 L1128.402,216.041 L1109.201,216.041 ZM1109.701,186.039 L1100.300,186.039 L1102.100,145.236 L1111.601,145.236 L1109.701,186.039 ZM1113.205,95.941 L1103.105,95.941 L1103.105,88.340 L1105.205,88.340 C1106.805,88.340 1107.905,87.040 1107.905,85.540 L1107.905,33.537 L1099.404,95.841 L1086.504,95.841 L1097.204,17.436 L1094.804,17.436 L1084.103,95.841 L1070.903,95.841 L1081.603,17.436 L1079.403,17.436 L1076.403,41.037 L1065.702,41.037 L1070.803,0.935 L1081.603,0.935 L1080.403,9.735 L1122.306,9.735 L1122.306,86.440 C1122.306,91.640 1118.206,95.941 1113.205,95.941 ZM1058.402,95.841 L1041.901,95.841 L1041.901,72.739 L1028.700,75.139 L1028.700,67.239 L1041.901,64.839 L1041.901,33.237 L1039.001,33.237 L1038.201,50.438 L1028.900,50.438 L1031.000,8.335 L1040.301,8.335 L1039.401,25.636 L1041.901,25.636 L1041.901,0.935 L1058.402,0.935 L1058.402,25.636 L1064.602,25.636 L1064.602,33.237 L1058.402,33.237 L1058.402,61.839 L1064.602,60.738 L1064.602,68.539 L1058.402,69.739 L1058.402,95.841 ZM1032.703,140.736 L1020.602,140.736 L1020.602,215.941 L1001.401,215.941 L1001.401,140.736 L989.200,140.736 L989.200,133.036 L1001.401,133.036 L1001.401,120.835 L1020.602,120.835 L1020.602,133.036 L1032.703,133.036 L1032.703,140.736 ZM918.600,87.040 L956.702,87.040 L956.702,63.439 L927.601,63.439 L927.601,55.838 L956.702,55.838 L956.702,30.537 L942.902,30.537 L940.601,47.538 L918.700,47.538 L924.300,7.135 L946.202,7.135 L944.002,22.936 L956.702,22.936 L956.702,1.335 L980.404,1.335 L980.404,22.936 L1009.506,22.936 L1009.506,30.537 L980.404,30.537 L980.404,55.838 L1007.205,55.838 L1007.205,63.439 L980.404,63.439 L980.404,87.040 L1013.306,87.040 L1013.306,94.640 L918.600,94.640 L918.600,87.040 ZM867.104,207.740 L879.104,207.740 C880.705,207.740 881.705,206.340 881.405,204.740 L878.004,181.439 L899.206,181.439 L902.706,202.840 C903.606,208.240 902.106,215.441 893.905,215.441 L844.202,215.441 L852.303,164.538 L843.302,164.538 L843.302,156.837 L903.206,156.837 L903.206,164.538 L873.604,164.538 L867.104,207.740 ZM899.706,130.035 L846.702,130.035 L846.702,122.335 L899.706,122.335 L899.706,130.035 ZM875.704,90.640 L872.904,96.141 L856.103,96.141 L870.204,69.939 L858.503,25.136 L830.301,25.136 L830.301,40.537 L857.903,40.537 L857.903,86.340 C857.903,91.540 853.603,95.841 848.403,95.841 L833.802,95.841 L833.802,88.240 L835.402,88.240 C836.902,88.240 838.202,86.940 838.202,85.440 L838.202,48.138 L830.301,48.138 L830.301,95.841 L809.200,95.841 L809.200,17.636 L856.603,17.636 L852.303,1.135 L874.004,1.135 L878.304,17.636 L902.806,17.636 L902.806,25.136 L880.305,25.136 L884.905,42.637 L887.505,37.937 L902.806,37.937 L902.806,45.538 L898.806,45.538 L890.205,62.439 L897.106,88.540 L902.806,88.540 L902.806,96.141 L877.104,96.141 L875.704,90.640 ZM878.404,2.235 L898.906,2.235 L902.506,14.636 L881.805,14.636 L878.404,2.235 ZM815.401,121.535 L836.002,121.535 L836.002,140.836 L842.702,140.836 L842.702,148.337 L836.002,148.337 L836.002,204.140 L842.702,203.240 L842.702,210.841 L808.800,215.541 L808.800,207.940 L815.401,207.040 L815.401,148.337 L808.800,148.337 L808.800,140.836 L815.401,140.836 L815.401,121.535 ZM738.003,166.538 L759.504,166.538 L759.504,183.839 L792.506,177.038 L792.506,184.739 L759.504,191.539 L759.504,208.240 L793.406,208.240 L793.406,215.741 L738.003,215.741 L738.003,166.538 ZM763.104,138.636 L753.703,163.038 L733.002,163.038 L749.003,120.935 L777.205,120.935 L793.206,163.038 L772.505,163.038 L763.104,138.636 ZM746.203,15.836 L722.302,38.637 L698.800,38.637 L698.800,31.037 L702.000,31.037 L733.402,1.535 L759.104,1.535 L790.606,31.037 L793.206,31.037 L793.206,38.637 L769.204,38.637 L746.203,15.836 ZM703.400,140.636 L703.400,120.935 L725.402,120.935 L725.402,140.636 L703.400,140.636 ZM702.400,43.838 L789.706,43.838 L789.706,51.438 L702.400,51.438 L702.400,43.838 ZM777.805,95.041 L702.900,95.041 L702.900,57.838 L789.106,57.838 L789.106,83.640 C789.106,89.940 784.105,95.041 777.805,95.041 ZM766.404,65.439 L725.702,65.439 L725.702,87.440 L763.604,87.440 C765.104,87.440 766.404,86.240 766.404,84.640 L766.404,65.439 ZM725.402,208.440 L729.102,208.440 L729.102,216.141 L703.400,216.141 L703.400,153.137 L698.600,153.137 L698.600,145.536 L725.402,145.536 L725.402,208.440 ZM659.004,216.041 L653.404,207.340 L647.304,216.041 L623.302,216.041 L641.703,189.339 L627.902,167.938 L627.902,164.538 L650.004,164.538 L654.204,171.138 L662.005,159.937 L627.202,159.937 L627.202,152.337 L642.703,152.337 L642.703,138.536 L626.902,138.536 L626.902,130.935 L642.703,130.935 L642.703,120.935 L667.305,120.935 L667.305,130.935 L683.206,130.935 L683.206,138.536 L667.305,138.536 L667.305,152.337 L683.206,152.337 L683.206,164.837 L666.005,189.439 L683.206,216.041 L659.004,216.041 ZM647.904,86.440 C647.904,91.640 643.603,95.941 638.403,95.941 L611.502,95.941 L611.502,88.340 L622.602,88.340 C624.202,88.340 625.502,87.040 625.502,85.540 L625.502,70.439 L588.900,70.439 L588.900,62.839 L625.902,62.839 L639.703,46.938 L599.001,46.938 L599.001,39.337 L670.805,39.337 L651.104,62.839 L683.006,62.839 L683.006,70.439 L647.904,70.439 L647.904,86.440 ZM661.605,23.136 L610.301,23.136 L610.301,36.337 L588.900,36.337 L588.900,15.536 L594.501,15.536 L591.100,1.535 L612.702,1.535 L616.202,15.536 L625.802,15.536 L622.402,1.535 L644.104,1.535 L647.404,15.536 L654.504,15.536 L658.004,1.535 L679.706,1.535 L676.205,15.536 L683.006,15.536 L683.006,36.337 L661.605,36.337 L661.605,23.136 ZM595.301,120.935 L617.602,120.935 L617.602,139.536 L624.302,139.536 L624.302,147.236 L617.602,147.236 L617.602,175.138 L624.302,173.638 L624.302,181.339 L617.602,182.739 L617.602,206.340 C617.602,211.640 612.001,215.941 605.201,215.941 L589.400,215.941 L589.400,208.340 L591.600,208.340 C593.600,208.340 595.301,207.040 595.301,205.440 L595.301,187.539 L588.800,188.839 L588.800,181.239 L595.301,179.838 L595.301,147.236 L588.800,147.236 L588.800,139.536 L595.301,139.536 L595.301,120.935 ZM570.606,215.841 L550.404,215.841 L550.404,196.240 L527.503,199.140 L527.503,191.139 L550.404,188.239 L550.404,120.935 L570.606,120.935 L570.606,185.739 L573.306,185.339 L573.306,193.339 L570.606,193.739 L570.606,215.841 ZM533.303,55.438 L519.103,64.039 L519.103,50.138 L533.303,41.538 L533.303,1.035 L557.005,1.035 L557.005,27.037 L571.906,17.936 L571.906,31.937 L557.005,41.037 L557.005,88.240 L572.106,88.240 L572.106,95.741 L533.303,95.741 L533.303,55.438 ZM513.302,24.636 L513.302,95.741 L490.001,95.741 L490.001,45.538 L478.700,45.538 L491.601,0.935 L515.002,0.935 L508.202,24.636 L513.302,24.636 ZM447.205,48.138 L460.906,48.138 L463.506,94.541 L449.705,94.541 L447.205,48.138 ZM445.205,86.540 C445.205,91.741 441.105,96.141 436.204,96.141 L422.903,96.141 L422.903,88.440 L423.503,88.440 C425.004,88.440 426.304,87.140 426.304,85.440 L426.304,39.137 L408.003,39.137 L408.003,31.437 L463.506,31.437 L463.506,39.137 L445.205,39.137 L445.205,86.540 ZM410.203,3.035 L461.106,3.035 L461.106,10.636 L410.203,10.636 L410.203,3.035 ZM406.502,36.737 C405.802,48.538 404.402,75.539 403.902,83.540 L387.901,83.540 L389.901,45.038 L387.701,45.038 L390.001,10.636 L386.001,10.636 L386.001,96.141 L369.100,96.141 L369.100,3.035 L407.002,3.035 C406.602,8.735 405.202,25.336 404.402,36.737 L406.502,36.737 ZM258.600,131.235 L269.801,131.235 L265.801,121.335 L289.502,121.335 L293.502,131.235 L318.304,131.235 L322.304,121.335 L346.105,121.335 L342.005,131.235 L353.306,131.235 L353.306,138.836 L258.600,138.836 L258.600,131.235 ZM344.605,93.940 L259.800,93.940 L259.800,4.635 L352.106,4.635 L352.106,86.440 C352.106,90.540 348.706,93.940 344.605,93.940 ZM333.505,11.535 L278.401,11.535 L278.401,86.940 L331.305,86.940 C332.505,86.940 333.505,86.040 333.505,84.740 L333.505,11.535 ZM328.704,54.438 L329.904,69.339 L318.604,69.339 L317.404,54.438 L328.704,54.438 ZM281.201,73.439 L295.602,73.439 L295.602,49.438 L283.402,49.438 L283.402,41.837 L295.602,41.837 L295.602,26.036 L282.202,26.036 L282.202,18.536 L329.704,18.536 L329.704,26.036 L315.304,26.036 L315.304,41.837 L328.504,41.837 L328.504,49.438 L315.304,49.438 L315.304,73.439 L330.704,73.439 L330.704,81.040 L281.201,81.040 L281.201,73.439 ZM309.503,204.240 C309.503,210.540 304.403,215.641 298.103,215.641 L284.302,215.641 L284.302,208.040 L287.202,208.040 C288.702,208.040 290.002,206.740 290.002,205.240 L290.002,194.739 L279.601,194.739 L279.601,215.641 L260.100,215.641 L260.100,143.836 L309.503,143.836 L309.503,204.240 ZM290.002,151.437 L279.601,151.437 L279.601,165.038 L290.002,165.038 L290.002,151.437 ZM290.002,172.638 L279.601,172.638 L279.601,187.139 L290.002,187.139 L290.002,172.638 ZM328.804,202.240 L313.603,202.240 L313.603,146.836 L328.804,146.836 L328.804,202.240 ZM332.505,205.340 L332.505,144.336 L352.006,144.336 L352.006,204.340 C352.006,210.640 346.805,215.741 340.605,215.741 L322.104,215.741 L322.104,208.140 L329.704,208.140 C331.305,208.140 332.505,206.940 332.505,205.340 ZM395.102,141.736 L374.400,141.736 L369.600,120.935 L390.301,120.935 L395.102,141.736 ZM395.402,166.638 L374.600,166.638 L369.600,145.836 L390.301,145.836 L395.402,166.638 ZM395.402,171.438 L390.301,215.941 L369.600,215.941 L374.600,171.438 L395.402,171.438 ZM462.906,205.940 C462.906,211.240 458.906,215.441 453.905,215.441 L400.902,215.441 L400.902,169.738 L462.906,169.738 L462.906,205.940 ZM441.905,177.338 L422.003,177.338 L422.003,207.840 L439.204,207.840 C440.604,207.840 441.905,206.540 441.905,205.040 L441.905,177.338 ZM424.404,48.138 L421.703,94.541 L408.003,94.541 L410.603,48.138 L424.404,48.138 ZM460.706,157.137 L463.306,157.137 L463.306,164.738 L439.804,164.738 L439.804,130.035 L422.903,130.035 L422.903,164.738 L401.002,164.738 L401.002,122.435 L460.706,122.435 L460.706,157.137 ZM491.901,130.535 L479.400,130.535 L479.400,122.935 L524.103,122.935 L524.103,130.535 L511.602,130.535 L511.602,139.736 L524.603,139.736 L524.603,147.236 L511.602,147.236 L511.602,216.041 L491.901,216.041 L491.901,147.236 L478.800,147.236 L478.800,139.736 L491.901,139.736 L491.901,130.535 ZM489.801,153.737 L488.701,216.041 L478.800,216.041 L480.000,153.737 L489.801,153.737 ZM524.603,216.041 L514.802,216.041 L513.602,153.737 L523.403,153.737 L524.603,216.041 ZM548.404,183.139 L530.703,183.139 L527.503,157.237 L545.304,157.237 L548.404,183.139 ZM548.404,150.837 L530.703,150.837 L527.503,124.835 L545.304,124.835 L548.404,150.837 ZM977.106,121.535 C972.005,137.036 969.105,153.737 969.105,171.038 C969.105,186.139 971.305,201.340 975.605,215.741 L953.504,215.741 C949.604,201.540 947.604,186.539 947.604,171.038 C947.604,154.237 950.004,137.536 954.804,121.535 L977.106,121.535 ZM1000.101,146.536 L998.701,215.941 L989.200,215.941 L990.600,146.536 L1000.101,146.536 ZM1032.703,215.941 L1023.202,215.941 L1021.802,146.536 L1031.303,146.536 L1032.703,215.941 ZM1049.004,120.935 L1070.005,120.935 L1070.005,130.835 L1084.006,130.835 L1084.006,138.536 L1035.103,138.536 L1035.103,130.835 L1049.004,130.835 L1049.004,120.935 ZM1081.506,208.340 L1084.006,208.340 L1084.006,215.941 L1062.605,215.941 L1062.605,153.437 L1055.504,153.437 L1055.504,215.941 L1036.603,215.941 L1036.603,145.836 L1081.506,145.836 L1081.506,208.340 ZM1162.404,214.140 L1143.203,214.140 L1143.203,123.835 L1162.404,123.835 L1162.404,214.140 ZM1172.805,186.039 L1164.704,186.039 L1163.404,145.236 L1171.505,145.236 L1172.805,186.039 ZM1192.706,216.041 L1173.505,216.041 L1173.505,121.435 L1192.706,121.435 L1192.706,216.041 ZM1231.001,121.535 C1235.802,137.536 1238.202,154.237 1238.202,171.038 C1238.202,186.539 1236.202,201.540 1232.301,215.741 L1210.200,215.741 C1214.500,201.340 1216.701,186.139 1216.701,171.038 C1216.701,153.737 1213.800,137.036 1208.700,121.535 L1231.001,121.535 Z"/>
<path fill-rule="evenodd"  opacity="0.831" fill="rgb(255, 255, 255)"
 d="M192.803,112.991 C192.554,113.273 192.294,113.548 192.024,113.815 L184.638,106.427 L185.126,105.939 C186.064,104.807 186.580,103.378 186.580,101.912 C186.580,98.429 183.746,95.595 180.264,95.595 C178.486,95.595 176.877,96.334 175.728,97.519 C174.627,98.657 173.947,100.206 173.947,101.912 C173.947,103.185 174.327,104.414 175.044,105.465 L175.132,105.592 L175.512,106.150 L164.070,106.150 L163.989,105.813 C163.685,104.543 163.531,103.231 163.531,101.912 C163.531,99.579 164.011,97.356 164.876,95.338 C165.709,93.395 166.901,91.640 168.367,90.157 C171.401,87.084 175.615,85.179 180.264,85.179 C183.733,85.179 187.061,86.232 189.888,88.222 C192.652,90.169 194.740,92.863 195.927,96.012 C196.636,97.897 196.997,99.881 196.997,101.912 C196.997,105.998 195.507,109.933 192.803,112.991 ZM187.668,118.128 L181.151,124.645 L195.644,124.645 L195.644,135.061 L156.004,135.061 L180.302,110.764 L187.668,118.128 ZM144.089,113.840 L136.696,106.446 L137.185,105.957 C138.123,104.824 138.640,103.394 138.640,101.926 C138.640,98.441 135.804,95.604 132.318,95.604 C130.539,95.604 128.928,96.343 127.779,97.530 C126.676,98.669 125.996,100.219 125.996,101.926 C125.996,103.201 126.376,104.430 127.094,105.483 L127.182,105.610 L127.563,106.168 L116.110,106.168 L116.029,105.831 C115.725,104.560 115.571,103.247 115.571,101.926 C115.571,99.592 116.051,97.367 116.917,95.347 C117.751,93.402 118.944,91.646 120.411,90.161 C123.448,87.086 127.665,85.179 132.318,85.179 C135.790,85.179 139.122,86.233 141.950,88.225 C144.717,90.173 146.806,92.870 147.995,96.022 C148.705,97.908 149.065,99.894 149.065,101.926 C149.065,106.016 147.575,109.955 144.868,113.015 C144.619,113.298 144.358,113.573 144.089,113.840 ZM139.728,118.157 L133.206,124.680 L147.711,124.680 L147.711,135.105 L108.037,135.105 L132.356,110.786 L139.728,118.157 ZM102.426,117.627 C102.426,117.848 102.422,118.069 102.414,118.288 C102.369,119.465 102.208,120.611 101.940,121.715 L92.229,112.004 L92.229,101.518 C92.024,97.915 89.131,95.048 85.607,95.048 C82.859,95.048 80.495,96.789 79.491,99.266 L72.051,91.826 C73.274,90.138 74.797,88.687 76.539,87.552 C79.156,85.850 82.268,84.863 85.607,84.863 C88.945,84.863 92.057,85.850 94.675,87.552 C99.166,90.475 102.199,95.507 102.414,101.271 C102.422,101.489 102.426,101.710 102.426,101.930 C102.426,102.151 102.422,102.371 102.414,102.590 L102.414,116.968 C102.422,117.187 102.426,117.407 102.426,117.627 ZM79.008,118.339 C79.352,121.801 82.180,124.511 85.607,124.511 C88.399,124.511 90.794,122.712 91.771,120.172 L99.234,127.635 C97.459,130.120 95.042,132.099 92.229,133.323 C90.196,134.207 87.958,134.696 85.607,134.696 C83.265,134.696 81.034,134.210 79.008,133.332 C73.317,130.866 69.239,125.308 68.823,118.739 C68.800,118.372 68.787,118.001 68.787,117.627 C68.787,117.254 68.800,116.885 68.823,116.518 L68.823,103.042 C68.800,102.674 68.787,102.304 68.787,101.930 C68.787,101.557 68.800,101.187 68.823,100.820 C68.890,99.753 69.055,98.712 69.306,97.707 L79.008,107.409 L79.008,118.339 ZM55.299,113.354 L47.855,105.910 L48.348,105.417 C49.292,104.277 49.813,102.837 49.813,101.359 C49.813,97.850 46.957,94.993 43.448,94.993 C41.656,94.993 40.034,95.738 38.877,96.932 C37.767,98.079 37.082,99.640 37.082,101.359 C37.082,102.643 37.465,103.880 38.187,104.940 L38.276,105.068 L38.659,105.630 L27.128,105.630 L27.046,105.291 C26.740,104.011 26.585,102.689 26.585,101.359 C26.585,99.009 27.069,96.769 27.941,94.734 C28.780,92.777 29.981,91.008 31.458,89.514 C34.516,86.417 38.762,84.497 43.448,84.497 C46.943,84.497 50.298,85.558 53.146,87.564 C55.931,89.525 58.035,92.240 59.232,95.414 C59.947,97.313 60.310,99.313 60.310,101.359 C60.310,105.477 58.809,109.443 56.083,112.524 C55.832,112.809 55.570,113.085 55.299,113.354 ZM50.909,117.701 L44.341,124.269 L58.946,124.269 L58.946,134.765 L19.000,134.765 L43.486,110.279 L50.909,117.701 Z"/>
<path fill-rule="evenodd"  fill="url(#PSgrad_0)"
 d="M2.000,263.002 L2.000,257.998 L1238.189,257.998 L1238.189,263.002 L2.000,263.002 Z"/>
<path fill-rule="evenodd"  stroke-width="4px" stroke-linecap="butt" stroke-linejoin="miter" fill="none"
 d="M2.063,4.937 L213.000,4.937 L213.000,216.064 L2.063,216.064 L2.063,4.937 Z"/>
<path fill-rule="evenodd"  fill="url(#PSgrad_2)"
 d="M16.661,168.918 L16.661,167.918 L196.999,167.918 L196.999,168.918 L16.661,168.918 ZM16.661,50.918 L196.999,50.918 L196.999,51.918 L16.661,51.918 L16.661,50.918 Z"/>
<path fill-rule="evenodd"  fill="rgb(255, 255, 255)"
 d="M1231.514,322.294 L1228.035,322.294 C1230.954,317.975 1233.274,311.976 1233.274,303.817 C1233.274,295.658 1230.994,289.739 1228.035,285.380 L1231.514,285.380 C1234.193,288.980 1237.073,294.859 1237.073,303.817 C1237.033,312.736 1234.193,318.575 1231.514,322.294 ZM1218.233,313.655 L1218.113,313.655 C1217.193,315.175 1215.033,317.295 1211.474,317.295 C1207.674,317.295 1204.355,314.935 1204.355,307.896 L1204.355,294.779 L1208.994,294.779 L1208.994,307.137 C1208.994,310.936 1210.074,313.455 1213.113,313.455 C1215.233,313.455 1217.713,311.776 1217.713,308.456 L1217.713,294.819 L1222.352,294.819 L1222.352,310.536 C1222.352,313.016 1222.472,315.095 1222.552,316.855 L1218.473,316.855 L1218.233,313.655 ZM1187.914,317.295 C1182.194,317.295 1177.835,313.096 1177.835,305.977 C1177.835,298.538 1182.395,294.339 1188.234,294.339 C1194.272,294.339 1198.232,298.898 1198.232,305.657 C1198.232,313.895 1192.873,317.295 1187.914,317.295 ZM1188.073,297.818 C1184.114,297.818 1182.594,302.057 1182.594,305.857 C1182.594,310.176 1184.634,313.815 1188.034,313.815 C1191.393,313.815 1193.473,310.176 1193.473,305.777 C1193.473,302.137 1191.953,297.818 1188.073,297.818 ZM1167.153,303.977 C1167.153,300.818 1166.073,298.178 1162.953,298.178 C1160.674,298.178 1158.234,300.058 1158.234,303.377 L1158.234,316.855 L1153.595,316.855 L1153.595,284.780 L1158.234,284.780 L1158.234,297.818 L1158.314,297.818 C1159.754,295.539 1162.234,294.339 1164.633,294.339 C1167.953,294.339 1171.792,296.578 1171.792,303.537 L1171.792,316.855 L1167.153,316.855 L1167.153,303.977 ZM1131.156,314.095 L1139.675,302.177 C1140.634,300.938 1141.514,299.818 1142.474,298.658 L1142.474,298.578 L1131.996,298.578 L1131.996,294.819 L1147.993,294.819 L1147.993,297.738 L1139.635,309.456 C1138.715,310.696 1137.795,311.896 1136.835,313.016 L1136.835,313.096 L1148.193,313.096 L1148.193,316.855 L1131.156,316.855 L1131.156,314.095 ZM1125.753,313.735 C1125.753,318.135 1125.393,326.253 1114.954,326.253 C1112.395,326.253 1109.715,325.693 1107.996,324.654 L1109.035,321.054 C1110.395,321.854 1112.515,322.614 1114.994,322.614 C1118.594,322.614 1121.153,320.614 1121.153,315.615 L1121.153,313.495 L1121.073,313.495 C1119.954,315.375 1117.794,316.735 1114.954,316.735 C1109.755,316.735 1106.196,312.136 1106.196,305.977 C1106.196,298.498 1110.715,294.339 1115.514,294.339 C1118.794,294.339 1120.634,296.018 1121.553,297.778 L1121.633,297.778 L1121.833,294.819 L1125.953,294.819 C1125.833,296.378 1125.753,298.218 1125.753,301.178 L1125.753,313.735 ZM1121.113,303.337 C1121.113,300.418 1119.194,298.018 1116.354,298.018 C1113.155,298.018 1110.915,301.058 1110.915,305.777 C1110.915,310.096 1112.875,313.176 1116.314,313.176 C1118.714,313.176 1121.113,311.336 1121.113,307.656 L1121.113,303.337 ZM1095.473,303.937 C1095.473,300.818 1094.434,298.178 1091.274,298.178 C1088.995,298.178 1086.555,300.058 1086.555,303.577 L1086.555,316.855 L1081.916,316.855 L1081.916,301.018 C1081.916,298.578 1081.836,296.698 1081.756,294.819 L1085.795,294.819 L1086.035,298.098 L1086.155,298.098 C1087.195,296.218 1089.515,294.339 1092.834,294.339 C1096.273,294.339 1100.113,296.578 1100.113,303.377 L1100.113,316.855 L1095.473,316.855 L1095.473,303.937 ZM1070.274,314.295 L1070.154,314.295 C1068.914,316.015 1066.755,317.295 1063.995,317.295 C1059.876,317.295 1057.516,314.255 1057.516,310.856 C1057.516,305.377 1062.275,302.657 1069.834,302.657 C1069.834,301.018 1069.834,297.738 1065.395,297.738 C1063.435,297.738 1061.436,298.338 1060.036,299.258 L1059.076,296.178 C1060.636,295.179 1063.235,294.339 1066.195,294.339 C1072.674,294.339 1074.473,298.618 1074.473,303.297 L1074.473,311.616 C1074.473,313.495 1074.513,315.415 1074.793,316.855 L1070.594,316.855 L1070.274,314.295 ZM1069.954,305.777 C1066.315,305.777 1062.115,306.457 1062.115,310.376 C1062.115,312.816 1063.635,313.895 1065.355,313.895 C1067.874,313.895 1069.954,311.976 1069.954,309.416 L1069.954,305.777 ZM1046.673,302.937 L1034.196,302.937 L1034.196,316.855 L1029.556,316.855 L1029.556,286.220 L1034.196,286.220 L1034.196,298.858 L1046.673,298.858 L1046.673,286.220 L1051.313,286.220 L1051.313,316.855 L1046.673,316.855 L1046.673,302.937 ZM1020.196,322.294 C1017.516,318.655 1014.597,312.736 1014.597,303.897 C1014.637,294.979 1017.516,289.060 1020.196,285.380 L1023.675,285.380 C1020.676,289.699 1018.436,295.698 1018.436,303.937 C1018.436,312.016 1020.756,317.895 1023.675,322.294 L1020.196,322.294 ZM986.996,323.974 C984.997,325.813 982.957,326.573 981.877,326.813 L980.677,322.894 C985.477,321.174 987.196,316.695 987.196,316.095 C987.196,315.855 987.156,315.575 986.956,315.135 L979.398,294.819 L984.477,294.819 L988.476,307.217 C988.916,308.656 989.356,310.336 989.676,311.616 L989.796,311.616 C990.116,310.336 990.556,308.696 990.956,307.217 L994.515,294.819 L999.394,294.819 L994.075,310.096 C991.476,317.335 989.636,321.414 986.996,323.974 ZM974.434,313.735 C974.434,318.135 974.074,326.253 963.636,326.253 C961.077,326.253 958.397,325.693 956.677,324.654 L957.717,321.054 C959.077,321.854 961.197,322.614 963.676,322.614 C967.275,322.614 969.835,320.614 969.835,315.615 L969.835,313.495 L969.755,313.495 C968.635,315.375 966.476,316.735 963.636,316.735 C958.437,316.735 954.878,312.136 954.878,305.977 C954.878,298.498 959.397,294.339 964.196,294.339 C967.475,294.339 969.315,296.018 970.235,297.778 L970.315,297.778 L970.515,294.819 L974.634,294.819 C974.514,296.378 974.434,298.218 974.434,301.178 L974.434,313.735 ZM969.795,303.337 C969.795,300.418 967.875,298.018 965.036,298.018 C961.836,298.018 959.597,301.058 959.597,305.777 C959.597,310.096 961.556,313.176 964.996,313.176 C967.395,313.176 969.795,311.336 969.795,307.656 L969.795,303.337 ZM939.716,317.295 C933.997,317.295 929.638,313.096 929.638,305.977 C929.638,298.538 934.197,294.339 940.036,294.339 C946.075,294.339 950.034,298.898 950.034,305.657 C950.034,313.895 944.675,317.295 939.716,317.295 ZM939.876,297.818 C935.917,297.818 934.397,302.057 934.397,305.857 C934.397,310.176 936.437,313.815 939.836,313.815 C943.195,313.815 945.275,310.176 945.275,305.777 C945.275,302.137 943.755,297.818 939.876,297.818 ZM918.878,284.780 L923.517,284.780 L923.517,316.855 L918.878,316.855 L918.878,284.780 ZM902.356,317.295 C896.637,317.295 892.278,313.096 892.278,305.977 C892.278,298.538 896.837,294.339 902.676,294.339 C908.715,294.339 912.675,298.898 912.675,305.657 C912.675,313.895 907.316,317.295 902.356,317.295 ZM902.516,297.818 C898.557,297.818 897.037,302.057 897.037,305.857 C897.037,310.176 899.077,313.815 902.476,313.815 C905.836,313.815 907.916,310.176 907.916,305.777 C907.916,302.137 906.396,297.818 902.516,297.818 ZM883.798,291.419 C882.198,291.419 881.118,290.219 881.118,288.740 C881.118,287.180 882.238,286.020 883.838,286.020 C885.437,286.020 886.517,287.180 886.517,288.740 C886.517,290.219 885.477,291.419 883.798,291.419 ZM875.195,308.096 C875.195,311.336 873.675,313.216 872.556,314.255 C870.516,316.215 867.156,317.135 862.117,317.135 C859.398,317.135 857.358,316.935 856.038,316.775 L856.038,286.660 C857.758,286.300 860.478,286.020 863.197,286.020 C872.516,286.020 874.115,290.579 874.115,293.659 C874.115,296.578 872.276,299.138 869.076,300.338 L869.076,300.458 C872.276,301.258 875.195,303.817 875.195,308.096 ZM869.476,294.139 C869.476,290.459 866.517,289.540 863.637,289.540 C862.117,289.540 861.197,289.659 860.638,289.779 L860.638,299.018 L863.477,299.018 C867.156,299.018 869.476,296.978 869.476,294.139 ZM863.317,302.457 L860.638,302.457 L860.638,313.415 C861.317,313.535 862.237,313.575 863.437,313.575 C867.156,313.575 870.356,312.016 870.356,307.976 C870.356,303.937 866.877,302.457 863.317,302.457 ZM834.717,298.018 C830.398,298.018 827.998,301.537 827.998,305.857 C827.998,310.696 830.838,313.575 834.677,313.575 C836.517,313.575 837.797,313.136 838.836,312.696 L839.476,316.175 C838.437,316.655 836.357,317.295 833.797,317.295 C827.438,317.295 823.279,312.936 823.279,306.057 C823.279,299.378 827.598,294.339 834.677,294.339 C836.797,294.339 838.636,294.859 839.596,295.339 L838.676,298.898 C837.877,298.498 836.597,298.018 834.717,298.018 ZM814.758,291.419 C813.159,291.419 812.079,290.219 812.079,288.740 C812.079,287.180 813.199,286.020 814.798,286.020 C816.398,286.020 817.478,287.180 817.478,288.740 C817.478,290.219 816.438,291.419 814.758,291.419 ZM801.598,309.456 C801.598,312.176 802.438,313.495 804.398,313.495 C805.318,313.495 805.878,313.376 806.438,313.216 L806.598,316.775 C805.798,317.095 804.558,317.295 802.998,317.295 C801.158,317.295 799.599,316.695 798.639,315.615 C797.519,314.415 796.999,312.576 796.999,309.696 L796.999,298.298 L793.880,298.298 L793.880,294.819 L796.999,294.819 L796.999,290.819 L801.598,289.380 L801.598,294.819 L806.838,294.819 L806.838,298.298 L801.598,298.298 L801.598,309.456 ZM775.879,306.897 C775.999,311.856 779.078,313.735 782.558,313.735 C784.997,313.735 786.677,313.296 788.117,312.696 L788.877,315.975 C787.317,316.695 784.877,317.295 781.878,317.295 C775.239,317.295 771.400,312.856 771.400,306.137 C771.400,299.578 775.079,294.339 781.318,294.339 C787.517,294.339 789.996,299.498 789.996,304.937 C789.996,305.697 789.956,306.337 789.876,306.897 L775.879,306.897 ZM780.998,297.658 C777.598,297.658 776.159,301.018 775.919,303.577 L785.597,303.577 C785.637,300.938 784.557,297.658 780.998,297.658 ZM760.677,303.977 C760.677,300.818 759.597,298.178 756.478,298.178 C754.198,298.178 751.759,300.058 751.759,303.377 L751.759,316.855 L747.119,316.855 L747.119,284.780 L751.759,284.780 L751.759,297.818 L751.839,297.818 C753.278,295.539 755.758,294.339 758.158,294.339 C761.477,294.339 765.316,296.578 765.316,303.537 L765.316,316.855 L760.677,316.855 L760.677,303.977 ZM736.279,309.456 C736.279,312.176 737.119,313.495 739.078,313.495 C739.998,313.495 740.558,313.376 741.118,313.216 L741.278,316.775 C740.478,317.095 739.239,317.295 737.679,317.295 C735.839,317.295 734.279,316.695 733.319,315.615 C732.200,314.415 731.680,312.576 731.680,309.696 L731.680,298.298 L728.560,298.298 L728.560,294.819 L731.680,294.819 L731.680,290.819 L736.279,289.380 L736.279,294.819 L741.518,294.819 L741.518,298.298 L736.279,298.298 L736.279,309.456 ZM718.678,303.937 C718.678,300.818 717.638,298.178 714.478,298.178 C712.199,298.178 709.759,300.058 709.759,303.577 L709.759,316.855 L705.120,316.855 L705.120,301.018 C705.120,298.578 705.040,296.698 704.960,294.819 L708.999,294.819 L709.239,298.098 L709.359,298.098 C710.399,296.218 712.719,294.339 716.038,294.339 C719.478,294.339 723.317,296.578 723.317,303.377 L723.317,316.855 L718.678,316.855 L718.678,303.937 ZM687.840,323.974 C685.840,325.813 683.800,326.573 682.720,326.813 L681.521,322.894 C686.320,321.174 688.039,316.695 688.039,316.095 C688.039,315.855 687.999,315.575 687.800,315.135 L680.241,294.819 L685.320,294.819 L689.319,307.217 C689.759,308.656 690.199,310.336 690.519,311.616 L690.639,311.616 C690.959,310.336 691.399,308.696 691.799,307.217 L695.358,294.819 L700.237,294.819 L694.918,310.096 C692.319,317.335 690.479,321.414 687.840,323.974 ZM676.478,308.336 C676.478,313.455 672.679,317.295 665.800,317.295 C662.920,317.295 659.881,316.455 658.401,315.455 L659.441,311.576 C661.081,312.576 663.560,313.376 666.080,313.376 C669.719,313.376 671.759,311.496 671.759,308.736 C671.759,306.137 670.199,304.537 666.560,303.017 C662.001,301.178 658.921,298.418 658.921,294.259 C658.921,289.420 662.800,285.780 668.879,285.780 C671.799,285.780 673.999,286.500 675.318,287.180 L674.198,291.019 C673.199,290.459 671.279,289.659 668.759,289.659 C665.120,289.659 663.600,291.779 663.600,293.739 C663.600,296.338 665.320,297.618 669.199,299.298 C674.119,301.458 676.478,304.137 676.478,308.336 ZM636.921,284.780 L641.561,284.780 L641.561,316.855 L636.921,316.855 L636.921,284.780 ZM625.280,314.295 L625.160,314.295 C623.920,316.015 621.760,317.295 619.001,317.295 C614.881,317.295 612.522,314.255 612.522,310.856 C612.522,305.377 617.281,302.657 624.840,302.657 C624.840,301.018 624.840,297.738 620.400,297.738 C618.441,297.738 616.441,298.338 615.041,299.258 L614.081,296.178 C615.641,295.179 618.241,294.339 621.200,294.339 C627.679,294.339 629.479,298.618 629.479,303.297 L629.479,311.616 C629.479,313.495 629.519,315.415 629.799,316.855 L625.599,316.855 L625.280,314.295 ZM624.960,305.777 C621.320,305.777 617.121,306.457 617.121,310.376 C617.121,312.816 618.641,313.895 620.360,313.895 C622.880,313.895 624.960,311.976 624.960,309.416 L624.960,305.777 ZM603.520,298.018 C599.201,298.018 596.801,301.537 596.801,305.857 C596.801,310.696 599.641,313.575 603.480,313.575 C605.320,313.575 606.600,313.136 607.639,312.696 L608.279,316.175 C607.239,316.655 605.160,317.295 602.600,317.295 C596.241,317.295 592.082,312.936 592.082,306.057 C592.082,299.378 596.401,294.339 603.480,294.339 C605.600,294.339 607.439,294.859 608.399,295.339 L607.479,298.898 C606.679,298.498 605.400,298.018 603.520,298.018 ZM583.561,291.419 C581.962,291.419 580.882,290.219 580.882,288.740 C580.882,287.180 582.002,286.020 583.601,286.020 C585.201,286.020 586.281,287.180 586.281,288.740 C586.281,290.219 585.241,291.419 583.561,291.419 ZM569.278,304.257 C569.278,300.578 568.078,298.138 565.279,298.138 C563.159,298.138 560.999,300.058 560.999,303.257 L560.999,316.855 L556.440,316.855 L556.440,303.577 C556.440,300.498 555.280,298.138 552.601,298.138 C550.521,298.138 548.162,300.018 548.162,303.497 L548.162,316.855 L543.602,316.855 L543.602,301.018 C543.602,298.538 543.522,296.698 543.442,294.819 L547.442,294.819 L547.682,298.058 L547.802,298.058 C548.881,296.218 550.881,294.339 554.241,294.339 C557.040,294.339 559.160,295.898 560.080,298.378 L560.160,298.378 C561.639,295.938 563.799,294.339 566.958,294.339 C570.238,294.339 573.837,296.578 573.837,303.537 L573.837,316.855 L569.278,316.855 L569.278,304.257 ZM523.402,306.897 C523.522,311.856 526.601,313.735 530.081,313.735 C532.520,313.735 534.200,313.296 535.640,312.696 L536.400,315.975 C534.840,316.695 532.400,317.295 529.401,317.295 C522.762,317.295 518.923,312.856 518.923,306.137 C518.923,299.578 522.602,294.339 528.841,294.339 C535.040,294.339 537.519,299.498 537.519,304.937 C537.519,305.697 537.479,306.337 537.400,306.897 L523.402,306.897 ZM528.521,297.658 C525.122,297.658 523.682,301.018 523.442,303.577 L533.120,303.577 C533.160,300.938 532.080,297.658 528.521,297.658 ZM508.200,303.977 C508.200,300.818 507.120,298.178 504.001,298.178 C501.721,298.178 499.282,300.058 499.282,303.377 L499.282,316.855 L494.642,316.855 L494.642,284.780 L499.282,284.780 L499.282,297.818 L499.362,297.818 C500.801,295.539 503.281,294.339 505.681,294.339 C509.000,294.339 512.839,296.578 512.839,303.537 L512.839,316.855 L508.200,316.855 L508.200,303.977 ZM482.441,289.699 C476.522,289.699 472.122,293.699 472.122,301.657 C472.122,309.176 476.042,313.376 482.361,313.376 C484.440,313.376 486.560,312.936 487.880,312.296 L488.680,316.015 C487.400,316.655 484.800,317.295 481.481,317.295 C472.962,317.295 467.243,311.656 467.243,301.897 C467.243,291.499 473.802,285.820 482.281,285.820 C485.800,285.820 487.960,286.580 488.800,287.020 L487.800,290.819 C486.520,290.219 484.720,289.699 482.441,289.699 ZM446.001,303.937 C446.001,300.818 444.961,298.178 441.802,298.178 C439.522,298.178 437.082,300.058 437.082,303.577 L437.082,316.855 L432.443,316.855 L432.443,301.018 C432.443,298.578 432.363,296.698 432.283,294.819 L436.322,294.819 L436.562,298.098 L436.682,298.098 C437.722,296.218 440.042,294.339 443.361,294.339 C446.801,294.339 450.640,296.578 450.640,303.377 L450.640,316.855 L446.001,316.855 L446.001,303.937 ZM415.922,317.295 C410.203,317.295 405.844,313.096 405.844,305.977 C405.844,298.538 410.403,294.339 416.242,294.339 C422.281,294.339 426.240,298.898 426.240,305.657 C426.240,313.895 420.881,317.295 415.922,317.295 ZM416.082,297.818 C412.122,297.818 410.603,302.057 410.603,305.857 C410.603,310.176 412.642,313.815 416.042,313.815 C419.401,313.815 421.481,310.176 421.481,305.777 C421.481,302.137 419.961,297.818 416.082,297.818 ZM384.720,304.257 C384.720,300.578 383.520,298.138 380.720,298.138 C378.601,298.138 376.441,300.058 376.441,303.257 L376.441,316.855 L371.882,316.855 L371.882,303.577 C371.882,300.498 370.722,298.138 368.042,298.138 C365.963,298.138 363.603,300.018 363.603,303.497 L363.603,316.855 L359.044,316.855 L359.044,301.018 C359.044,298.538 358.964,296.698 358.884,294.819 L362.883,294.819 L363.123,298.058 L363.243,298.058 C364.323,296.218 366.323,294.339 369.682,294.339 C372.482,294.339 374.601,295.898 375.521,298.378 L375.601,298.378 C377.081,295.938 379.241,294.339 382.400,294.339 C385.679,294.339 389.279,296.578 389.279,303.537 L389.279,316.855 L384.720,316.855 L384.720,304.257 ZM347.362,313.655 L347.242,313.655 C346.322,315.175 344.163,317.295 340.603,317.295 C336.804,317.295 333.485,314.935 333.485,307.896 L333.485,294.779 L338.124,294.779 L338.124,307.137 C338.124,310.936 339.204,313.455 342.243,313.455 C344.363,313.455 346.842,311.776 346.842,308.456 L346.842,294.819 L351.482,294.819 L351.482,310.536 C351.482,313.016 351.601,315.095 351.682,316.855 L347.602,316.855 L347.362,313.655 ZM327.003,298.778 C323.884,298.778 321.924,301.338 321.924,305.177 L321.924,316.855 L317.285,316.855 L317.285,301.537 C317.285,298.978 317.245,296.858 317.125,294.819 L321.164,294.819 L321.324,298.858 L321.484,298.858 C322.484,296.058 324.804,294.339 327.203,294.339 C327.643,294.339 327.963,294.379 328.363,294.459 L328.363,298.898 C327.963,298.818 327.523,298.778 327.003,298.778 ZM300.764,317.295 C295.045,317.295 290.685,313.096 290.685,305.977 C290.685,298.538 295.245,294.339 301.084,294.339 C307.123,294.339 311.082,298.898 311.082,305.657 C311.082,313.895 305.723,317.295 300.764,317.295 ZM300.924,297.818 C296.964,297.818 295.445,302.057 295.445,305.857 C295.445,310.176 297.484,313.815 300.884,313.815 C304.243,313.815 306.323,310.176 306.323,305.777 C306.323,302.137 304.803,297.818 300.924,297.818 ZM274.244,299.578 L284.723,299.578 L284.723,303.417 L274.244,303.417 L274.244,316.855 L269.605,316.855 L269.605,286.260 L285.522,286.260 L285.522,290.139 L274.244,290.139 L274.244,299.578 ZM246.645,284.780 L251.285,284.780 L251.285,316.855 L246.645,316.855 L246.645,284.780 ZM235.004,314.295 L234.884,314.295 C233.644,316.015 231.484,317.295 228.725,317.295 C224.605,317.295 222.246,314.255 222.246,310.856 C222.246,305.377 227.005,302.657 234.564,302.657 C234.564,301.018 234.564,297.738 230.124,297.738 C228.165,297.738 226.165,298.338 224.765,299.258 L223.806,296.178 C225.365,295.179 227.965,294.339 230.924,294.339 C237.403,294.339 239.203,298.618 239.203,303.297 L239.203,311.616 C239.203,313.495 239.243,315.415 239.523,316.855 L235.324,316.855 L235.004,314.295 ZM234.684,305.777 C231.044,305.777 226.845,306.457 226.845,310.376 C226.845,312.816 228.365,313.895 230.084,313.895 C232.604,313.895 234.684,311.976 234.684,309.416 L234.684,305.777 ZM211.683,303.937 C211.683,300.818 210.644,298.178 207.484,298.178 C205.204,298.178 202.765,300.058 202.765,303.577 L202.765,316.855 L198.126,316.855 L198.126,301.018 C198.126,298.578 198.046,296.698 197.966,294.819 L202.005,294.819 L202.245,298.098 L202.365,298.098 C203.405,296.218 205.724,294.339 209.044,294.339 C212.483,294.339 216.323,296.578 216.323,303.377 L216.323,316.855 L211.683,316.855 L211.683,303.937 ZM181.604,317.295 C175.885,317.295 171.526,313.096 171.526,305.977 C171.526,298.538 176.085,294.339 181.924,294.339 C187.963,294.339 191.923,298.898 191.923,305.657 C191.923,313.895 186.563,317.295 181.604,317.295 ZM181.764,297.818 C177.805,297.818 176.285,302.057 176.285,305.857 C176.285,310.176 178.325,313.815 181.724,313.815 C185.084,313.815 187.163,310.176 187.163,305.777 C187.163,302.137 185.644,297.818 181.764,297.818 ZM163.045,291.419 C161.446,291.419 160.366,290.219 160.366,288.740 C160.366,287.180 161.486,286.020 163.085,286.020 C164.685,286.020 165.765,287.180 165.765,288.740 C165.765,290.219 164.725,291.419 163.045,291.419 ZM149.885,309.456 C149.885,312.176 150.725,313.495 152.685,313.495 C153.605,313.495 154.165,313.376 154.725,313.216 L154.885,316.775 C154.085,317.095 152.845,317.295 151.285,317.295 C149.445,317.295 147.886,316.695 146.926,315.615 C145.806,314.415 145.286,312.576 145.286,309.696 L145.286,298.298 L142.167,298.298 L142.167,294.819 L145.286,294.819 L145.286,290.819 L149.885,289.380 L149.885,294.819 L155.124,294.819 L155.124,298.298 L149.885,298.298 L149.885,309.456 ZM132.724,314.295 L132.605,314.295 C131.365,316.015 129.205,317.295 126.446,317.295 C122.326,317.295 119.967,314.255 119.967,310.856 C119.967,305.377 124.726,302.657 132.285,302.657 C132.285,301.018 132.285,297.738 127.845,297.738 C125.886,297.738 123.886,298.338 122.486,299.258 L121.526,296.178 C123.086,295.179 125.686,294.339 128.645,294.339 C135.124,294.339 136.924,298.618 136.924,303.297 L136.924,311.616 C136.924,313.495 136.964,315.415 137.244,316.855 L133.044,316.855 L132.724,314.295 ZM132.405,305.777 C128.765,305.777 124.566,306.457 124.566,310.376 C124.566,312.816 126.086,313.895 127.805,313.895 C130.325,313.895 132.405,311.976 132.405,309.416 L132.405,305.777 ZM109.404,303.937 C109.404,300.818 108.364,298.178 105.205,298.178 C102.925,298.178 100.486,300.058 100.486,303.577 L100.486,316.855 L95.846,316.855 L95.846,301.018 C95.846,298.578 95.766,296.698 95.686,294.819 L99.726,294.819 L99.966,298.098 L100.086,298.098 C101.126,296.218 103.445,294.339 106.765,294.339 C110.204,294.339 114.043,296.578 114.043,303.377 L114.043,316.855 L109.404,316.855 L109.404,303.937 ZM89.285,298.778 C86.166,298.778 84.206,301.338 84.206,305.177 L84.206,316.855 L79.567,316.855 L79.567,301.537 C79.567,298.978 79.527,296.858 79.407,294.819 L83.446,294.819 L83.606,298.858 L83.766,298.858 C84.766,296.058 87.086,294.339 89.485,294.339 C89.925,294.339 90.245,294.379 90.645,294.459 L90.645,298.898 C90.245,298.818 89.805,298.778 89.285,298.778 ZM59.366,306.897 C59.486,311.856 62.566,313.735 66.045,313.735 C68.485,313.735 70.165,313.296 71.604,312.696 L72.364,315.975 C70.804,316.695 68.365,317.295 65.365,317.295 C58.727,317.295 54.887,312.856 54.887,306.137 C54.887,299.578 58.567,294.339 64.805,294.339 C71.004,294.339 73.484,299.498 73.484,304.937 C73.484,305.697 73.444,306.337 73.364,306.897 L59.366,306.897 ZM64.486,297.658 C61.086,297.658 59.646,301.018 59.406,303.577 L69.085,303.577 C69.125,300.938 68.045,297.658 64.486,297.658 ZM45.406,309.456 C45.406,312.176 46.246,313.495 48.206,313.495 C49.126,313.495 49.686,313.376 50.246,313.216 L50.406,316.775 C49.606,317.095 48.366,317.295 46.806,317.295 C44.967,317.295 43.407,316.695 42.447,315.615 C41.327,314.415 40.807,312.576 40.807,309.696 L40.807,298.298 L37.688,298.298 L37.688,294.819 L40.807,294.819 L40.807,290.819 L45.406,289.380 L45.406,294.819 L50.646,294.819 L50.646,298.298 L45.406,298.298 L45.406,309.456 ZM27.805,303.937 C27.805,300.818 26.765,298.178 23.606,298.178 C21.326,298.178 18.887,300.058 18.887,303.577 L18.887,316.855 L14.247,316.855 L14.247,301.018 C14.247,298.578 14.167,296.698 14.088,294.819 L18.127,294.819 L18.367,298.098 L18.487,298.098 C19.527,296.218 21.846,294.339 25.166,294.339 C28.605,294.339 32.444,296.578 32.444,303.377 L32.444,316.855 L27.805,316.855 L27.805,303.937 ZM2.088,284.780 L6.727,284.780 L6.727,316.855 L2.088,316.855 L2.088,284.780 ZM165.365,316.855 L160.726,316.855 L160.726,294.779 L165.365,294.779 L165.365,316.855 ZM585.881,316.855 L581.242,316.855 L581.242,294.779 L585.881,294.779 L585.881,316.855 ZM817.078,316.855 L812.439,316.855 L812.439,294.779 L817.078,294.779 L817.078,316.855 ZM886.117,316.855 L881.478,316.855 L881.478,294.779 L886.117,294.779 L886.117,316.855 Z"/>
<path fill="url(#PSgrad_3)"
 d="M1231.514,322.294 L1228.035,322.294 C1230.954,317.975 1233.274,311.976 1233.274,303.817 C1233.274,295.658 1230.994,289.739 1228.035,285.380 L1231.514,285.380 C1234.193,288.980 1237.073,294.859 1237.073,303.817 C1237.033,312.736 1234.193,318.575 1231.514,322.294 ZM1218.233,313.655 L1218.113,313.655 C1217.193,315.175 1215.033,317.295 1211.474,317.295 C1207.674,317.295 1204.355,314.935 1204.355,307.896 L1204.355,294.779 L1208.994,294.779 L1208.994,307.137 C1208.994,310.936 1210.074,313.455 1213.113,313.455 C1215.233,313.455 1217.713,311.776 1217.713,308.456 L1217.713,294.819 L1222.352,294.819 L1222.352,310.536 C1222.352,313.016 1222.472,315.095 1222.552,316.855 L1218.473,316.855 L1218.233,313.655 ZM1187.914,317.295 C1182.194,317.295 1177.835,313.096 1177.835,305.977 C1177.835,298.538 1182.395,294.339 1188.234,294.339 C1194.272,294.339 1198.232,298.898 1198.232,305.657 C1198.232,313.895 1192.873,317.295 1187.914,317.295 ZM1188.073,297.818 C1184.114,297.818 1182.594,302.057 1182.594,305.857 C1182.594,310.176 1184.634,313.815 1188.034,313.815 C1191.393,313.815 1193.473,310.176 1193.473,305.777 C1193.473,302.137 1191.953,297.818 1188.073,297.818 ZM1167.153,303.977 C1167.153,300.818 1166.073,298.178 1162.953,298.178 C1160.674,298.178 1158.234,300.058 1158.234,303.377 L1158.234,316.855 L1153.595,316.855 L1153.595,284.780 L1158.234,284.780 L1158.234,297.818 L1158.314,297.818 C1159.754,295.539 1162.234,294.339 1164.633,294.339 C1167.953,294.339 1171.792,296.578 1171.792,303.537 L1171.792,316.855 L1167.153,316.855 L1167.153,303.977 ZM1131.156,314.095 L1139.675,302.177 C1140.634,300.938 1141.514,299.818 1142.474,298.658 L1142.474,298.578 L1131.996,298.578 L1131.996,294.819 L1147.993,294.819 L1147.993,297.738 L1139.635,309.456 C1138.715,310.696 1137.795,311.896 1136.835,313.016 L1136.835,313.096 L1148.193,313.096 L1148.193,316.855 L1131.156,316.855 L1131.156,314.095 ZM1125.753,313.735 C1125.753,318.135 1125.393,326.253 1114.954,326.253 C1112.395,326.253 1109.715,325.693 1107.996,324.654 L1109.035,321.054 C1110.395,321.854 1112.515,322.614 1114.994,322.614 C1118.594,322.614 1121.153,320.614 1121.153,315.615 L1121.153,313.495 L1121.073,313.495 C1119.954,315.375 1117.794,316.735 1114.954,316.735 C1109.755,316.735 1106.196,312.136 1106.196,305.977 C1106.196,298.498 1110.715,294.339 1115.514,294.339 C1118.794,294.339 1120.634,296.018 1121.553,297.778 L1121.633,297.778 L1121.833,294.819 L1125.953,294.819 C1125.833,296.378 1125.753,298.218 1125.753,301.178 L1125.753,313.735 ZM1121.113,303.337 C1121.113,300.418 1119.194,298.018 1116.354,298.018 C1113.155,298.018 1110.915,301.058 1110.915,305.777 C1110.915,310.096 1112.875,313.176 1116.314,313.176 C1118.714,313.176 1121.113,311.336 1121.113,307.656 L1121.113,303.337 ZM1095.473,303.937 C1095.473,300.818 1094.434,298.178 1091.274,298.178 C1088.995,298.178 1086.555,300.058 1086.555,303.577 L1086.555,316.855 L1081.916,316.855 L1081.916,301.018 C1081.916,298.578 1081.836,296.698 1081.756,294.819 L1085.795,294.819 L1086.035,298.098 L1086.155,298.098 C1087.195,296.218 1089.515,294.339 1092.834,294.339 C1096.273,294.339 1100.113,296.578 1100.113,303.377 L1100.113,316.855 L1095.473,316.855 L1095.473,303.937 ZM1070.274,314.295 L1070.154,314.295 C1068.914,316.015 1066.755,317.295 1063.995,317.295 C1059.876,317.295 1057.516,314.255 1057.516,310.856 C1057.516,305.377 1062.275,302.657 1069.834,302.657 C1069.834,301.018 1069.834,297.738 1065.395,297.738 C1063.435,297.738 1061.436,298.338 1060.036,299.258 L1059.076,296.178 C1060.636,295.179 1063.235,294.339 1066.195,294.339 C1072.674,294.339 1074.473,298.618 1074.473,303.297 L1074.473,311.616 C1074.473,313.495 1074.513,315.415 1074.793,316.855 L1070.594,316.855 L1070.274,314.295 ZM1069.954,305.777 C1066.315,305.777 1062.115,306.457 1062.115,310.376 C1062.115,312.816 1063.635,313.895 1065.355,313.895 C1067.874,313.895 1069.954,311.976 1069.954,309.416 L1069.954,305.777 ZM1046.673,302.937 L1034.196,302.937 L1034.196,316.855 L1029.556,316.855 L1029.556,286.220 L1034.196,286.220 L1034.196,298.858 L1046.673,298.858 L1046.673,286.220 L1051.313,286.220 L1051.313,316.855 L1046.673,316.855 L1046.673,302.937 ZM1020.196,322.294 C1017.516,318.655 1014.597,312.736 1014.597,303.897 C1014.637,294.979 1017.516,289.060 1020.196,285.380 L1023.675,285.380 C1020.676,289.699 1018.436,295.698 1018.436,303.937 C1018.436,312.016 1020.756,317.895 1023.675,322.294 L1020.196,322.294 ZM986.996,323.974 C984.997,325.813 982.957,326.573 981.877,326.813 L980.677,322.894 C985.477,321.174 987.196,316.695 987.196,316.095 C987.196,315.855 987.156,315.575 986.956,315.135 L979.398,294.819 L984.477,294.819 L988.476,307.217 C988.916,308.656 989.356,310.336 989.676,311.616 L989.796,311.616 C990.116,310.336 990.556,308.696 990.956,307.217 L994.515,294.819 L999.394,294.819 L994.075,310.096 C991.476,317.335 989.636,321.414 986.996,323.974 ZM974.434,313.735 C974.434,318.135 974.074,326.253 963.636,326.253 C961.077,326.253 958.397,325.693 956.677,324.654 L957.717,321.054 C959.077,321.854 961.197,322.614 963.676,322.614 C967.275,322.614 969.835,320.614 969.835,315.615 L969.835,313.495 L969.755,313.495 C968.635,315.375 966.476,316.735 963.636,316.735 C958.437,316.735 954.878,312.136 954.878,305.977 C954.878,298.498 959.397,294.339 964.196,294.339 C967.475,294.339 969.315,296.018 970.235,297.778 L970.315,297.778 L970.515,294.819 L974.634,294.819 C974.514,296.378 974.434,298.218 974.434,301.178 L974.434,313.735 ZM969.795,303.337 C969.795,300.418 967.875,298.018 965.036,298.018 C961.836,298.018 959.597,301.058 959.597,305.777 C959.597,310.096 961.556,313.176 964.996,313.176 C967.395,313.176 969.795,311.336 969.795,307.656 L969.795,303.337 ZM939.716,317.295 C933.997,317.295 929.638,313.096 929.638,305.977 C929.638,298.538 934.197,294.339 940.036,294.339 C946.075,294.339 950.034,298.898 950.034,305.657 C950.034,313.895 944.675,317.295 939.716,317.295 ZM939.876,297.818 C935.917,297.818 934.397,302.057 934.397,305.857 C934.397,310.176 936.437,313.815 939.836,313.815 C943.195,313.815 945.275,310.176 945.275,305.777 C945.275,302.137 943.755,297.818 939.876,297.818 ZM918.878,284.780 L923.517,284.780 L923.517,316.855 L918.878,316.855 L918.878,284.780 ZM902.356,317.295 C896.637,317.295 892.278,313.096 892.278,305.977 C892.278,298.538 896.837,294.339 902.676,294.339 C908.715,294.339 912.675,298.898 912.675,305.657 C912.675,313.895 907.316,317.295 902.356,317.295 ZM902.516,297.818 C898.557,297.818 897.037,302.057 897.037,305.857 C897.037,310.176 899.077,313.815 902.476,313.815 C905.836,313.815 907.916,310.176 907.916,305.777 C907.916,302.137 906.396,297.818 902.516,297.818 ZM883.798,291.419 C882.198,291.419 881.118,290.219 881.118,288.740 C881.118,287.180 882.238,286.020 883.838,286.020 C885.437,286.020 886.517,287.180 886.517,288.740 C886.517,290.219 885.477,291.419 883.798,291.419 ZM875.195,308.096 C875.195,311.336 873.675,313.216 872.556,314.255 C870.516,316.215 867.156,317.135 862.117,317.135 C859.398,317.135 857.358,316.935 856.038,316.775 L856.038,286.660 C857.758,286.300 860.478,286.020 863.197,286.020 C872.516,286.020 874.115,290.579 874.115,293.659 C874.115,296.578 872.276,299.138 869.076,300.338 L869.076,300.458 C872.276,301.258 875.195,303.817 875.195,308.096 ZM869.476,294.139 C869.476,290.459 866.517,289.540 863.637,289.540 C862.117,289.540 861.197,289.659 860.638,289.779 L860.638,299.018 L863.477,299.018 C867.156,299.018 869.476,296.978 869.476,294.139 ZM863.317,302.457 L860.638,302.457 L860.638,313.415 C861.317,313.535 862.237,313.575 863.437,313.575 C867.156,313.575 870.356,312.016 870.356,307.976 C870.356,303.937 866.877,302.457 863.317,302.457 ZM834.717,298.018 C830.398,298.018 827.998,301.537 827.998,305.857 C827.998,310.696 830.838,313.575 834.677,313.575 C836.517,313.575 837.797,313.136 838.836,312.696 L839.476,316.175 C838.437,316.655 836.357,317.295 833.797,317.295 C827.438,317.295 823.279,312.936 823.279,306.057 C823.279,299.378 827.598,294.339 834.677,294.339 C836.797,294.339 838.636,294.859 839.596,295.339 L838.676,298.898 C837.877,298.498 836.597,298.018 834.717,298.018 ZM814.758,291.419 C813.159,291.419 812.079,290.219 812.079,288.740 C812.079,287.180 813.199,286.020 814.798,286.020 C816.398,286.020 817.478,287.180 817.478,288.740 C817.478,290.219 816.438,291.419 814.758,291.419 ZM801.598,309.456 C801.598,312.176 802.438,313.495 804.398,313.495 C805.318,313.495 805.878,313.376 806.438,313.216 L806.598,316.775 C805.798,317.095 804.558,317.295 802.998,317.295 C801.158,317.295 799.599,316.695 798.639,315.615 C797.519,314.415 796.999,312.576 796.999,309.696 L796.999,298.298 L793.880,298.298 L793.880,294.819 L796.999,294.819 L796.999,290.819 L801.598,289.380 L801.598,294.819 L806.838,294.819 L806.838,298.298 L801.598,298.298 L801.598,309.456 ZM775.879,306.897 C775.999,311.856 779.078,313.735 782.558,313.735 C784.997,313.735 786.677,313.296 788.117,312.696 L788.877,315.975 C787.317,316.695 784.877,317.295 781.878,317.295 C775.239,317.295 771.400,312.856 771.400,306.137 C771.400,299.578 775.079,294.339 781.318,294.339 C787.517,294.339 789.996,299.498 789.996,304.937 C789.996,305.697 789.956,306.337 789.876,306.897 L775.879,306.897 ZM780.998,297.658 C777.598,297.658 776.159,301.018 775.919,303.577 L785.597,303.577 C785.637,300.938 784.557,297.658 780.998,297.658 ZM760.677,303.977 C760.677,300.818 759.597,298.178 756.478,298.178 C754.198,298.178 751.759,300.058 751.759,303.377 L751.759,316.855 L747.119,316.855 L747.119,284.780 L751.759,284.780 L751.759,297.818 L751.839,297.818 C753.278,295.539 755.758,294.339 758.158,294.339 C761.477,294.339 765.316,296.578 765.316,303.537 L765.316,316.855 L760.677,316.855 L760.677,303.977 ZM736.279,309.456 C736.279,312.176 737.119,313.495 739.078,313.495 C739.998,313.495 740.558,313.376 741.118,313.216 L741.278,316.775 C740.478,317.095 739.239,317.295 737.679,317.295 C735.839,317.295 734.279,316.695 733.319,315.615 C732.200,314.415 731.680,312.576 731.680,309.696 L731.680,298.298 L728.560,298.298 L728.560,294.819 L731.680,294.819 L731.680,290.819 L736.279,289.380 L736.279,294.819 L741.518,294.819 L741.518,298.298 L736.279,298.298 L736.279,309.456 ZM718.678,303.937 C718.678,300.818 717.638,298.178 714.478,298.178 C712.199,298.178 709.759,300.058 709.759,303.577 L709.759,316.855 L705.120,316.855 L705.120,301.018 C705.120,298.578 705.040,296.698 704.960,294.819 L708.999,294.819 L709.239,298.098 L709.359,298.098 C710.399,296.218 712.719,294.339 716.038,294.339 C719.478,294.339 723.317,296.578 723.317,303.377 L723.317,316.855 L718.678,316.855 L718.678,303.937 ZM687.840,323.974 C685.840,325.813 683.800,326.573 682.720,326.813 L681.521,322.894 C686.320,321.174 688.039,316.695 688.039,316.095 C688.039,315.855 687.999,315.575 687.800,315.135 L680.241,294.819 L685.320,294.819 L689.319,307.217 C689.759,308.656 690.199,310.336 690.519,311.616 L690.639,311.616 C690.959,310.336 691.399,308.696 691.799,307.217 L695.358,294.819 L700.237,294.819 L694.918,310.096 C692.319,317.335 690.479,321.414 687.840,323.974 ZM676.478,308.336 C676.478,313.455 672.679,317.295 665.800,317.295 C662.920,317.295 659.881,316.455 658.401,315.455 L659.441,311.576 C661.081,312.576 663.560,313.376 666.080,313.376 C669.719,313.376 671.759,311.496 671.759,308.736 C671.759,306.137 670.199,304.537 666.560,303.017 C662.001,301.178 658.921,298.418 658.921,294.259 C658.921,289.420 662.800,285.780 668.879,285.780 C671.799,285.780 673.999,286.500 675.318,287.180 L674.198,291.019 C673.199,290.459 671.279,289.659 668.759,289.659 C665.120,289.659 663.600,291.779 663.600,293.739 C663.600,296.338 665.320,297.618 669.199,299.298 C674.119,301.458 676.478,304.137 676.478,308.336 ZM636.921,284.780 L641.561,284.780 L641.561,316.855 L636.921,316.855 L636.921,284.780 ZM625.280,314.295 L625.160,314.295 C623.920,316.015 621.760,317.295 619.001,317.295 C614.881,317.295 612.522,314.255 612.522,310.856 C612.522,305.377 617.281,302.657 624.840,302.657 C624.840,301.018 624.840,297.738 620.400,297.738 C618.441,297.738 616.441,298.338 615.041,299.258 L614.081,296.178 C615.641,295.179 618.241,294.339 621.200,294.339 C627.679,294.339 629.479,298.618 629.479,303.297 L629.479,311.616 C629.479,313.495 629.519,315.415 629.799,316.855 L625.599,316.855 L625.280,314.295 ZM624.960,305.777 C621.320,305.777 617.121,306.457 617.121,310.376 C617.121,312.816 618.641,313.895 620.360,313.895 C622.880,313.895 624.960,311.976 624.960,309.416 L624.960,305.777 ZM603.520,298.018 C599.201,298.018 596.801,301.537 596.801,305.857 C596.801,310.696 599.641,313.575 603.480,313.575 C605.320,313.575 606.600,313.136 607.639,312.696 L608.279,316.175 C607.239,316.655 605.160,317.295 602.600,317.295 C596.241,317.295 592.082,312.936 592.082,306.057 C592.082,299.378 596.401,294.339 603.480,294.339 C605.600,294.339 607.439,294.859 608.399,295.339 L607.479,298.898 C606.679,298.498 605.400,298.018 603.520,298.018 ZM583.561,291.419 C581.962,291.419 580.882,290.219 580.882,288.740 C580.882,287.180 582.002,286.020 583.601,286.020 C585.201,286.020 586.281,287.180 586.281,288.740 C586.281,290.219 585.241,291.419 583.561,291.419 ZM569.278,304.257 C569.278,300.578 568.078,298.138 565.279,298.138 C563.159,298.138 560.999,300.058 560.999,303.257 L560.999,316.855 L556.440,316.855 L556.440,303.577 C556.440,300.498 555.280,298.138 552.601,298.138 C550.521,298.138 548.162,300.018 548.162,303.497 L548.162,316.855 L543.602,316.855 L543.602,301.018 C543.602,298.538 543.522,296.698 543.442,294.819 L547.442,294.819 L547.682,298.058 L547.802,298.058 C548.881,296.218 550.881,294.339 554.241,294.339 C557.040,294.339 559.160,295.898 560.080,298.378 L560.160,298.378 C561.639,295.938 563.799,294.339 566.958,294.339 C570.238,294.339 573.837,296.578 573.837,303.537 L573.837,316.855 L569.278,316.855 L569.278,304.257 ZM523.402,306.897 C523.522,311.856 526.601,313.735 530.081,313.735 C532.520,313.735 534.200,313.296 535.640,312.696 L536.400,315.975 C534.840,316.695 532.400,317.295 529.401,317.295 C522.762,317.295 518.923,312.856 518.923,306.137 C518.923,299.578 522.602,294.339 528.841,294.339 C535.040,294.339 537.519,299.498 537.519,304.937 C537.519,305.697 537.479,306.337 537.400,306.897 L523.402,306.897 ZM528.521,297.658 C525.122,297.658 523.682,301.018 523.442,303.577 L533.120,303.577 C533.160,300.938 532.080,297.658 528.521,297.658 ZM508.200,303.977 C508.200,300.818 507.120,298.178 504.001,298.178 C501.721,298.178 499.282,300.058 499.282,303.377 L499.282,316.855 L494.642,316.855 L494.642,284.780 L499.282,284.780 L499.282,297.818 L499.362,297.818 C500.801,295.539 503.281,294.339 505.681,294.339 C509.000,294.339 512.839,296.578 512.839,303.537 L512.839,316.855 L508.200,316.855 L508.200,303.977 ZM482.441,289.699 C476.522,289.699 472.122,293.699 472.122,301.657 C472.122,309.176 476.042,313.376 482.361,313.376 C484.440,313.376 486.560,312.936 487.880,312.296 L488.680,316.015 C487.400,316.655 484.800,317.295 481.481,317.295 C472.962,317.295 467.243,311.656 467.243,301.897 C467.243,291.499 473.802,285.820 482.281,285.820 C485.800,285.820 487.960,286.580 488.800,287.020 L487.800,290.819 C486.520,290.219 484.720,289.699 482.441,289.699 ZM446.001,303.937 C446.001,300.818 444.961,298.178 441.802,298.178 C439.522,298.178 437.082,300.058 437.082,303.577 L437.082,316.855 L432.443,316.855 L432.443,301.018 C432.443,298.578 432.363,296.698 432.283,294.819 L436.322,294.819 L436.562,298.098 L436.682,298.098 C437.722,296.218 440.042,294.339 443.361,294.339 C446.801,294.339 450.640,296.578 450.640,303.377 L450.640,316.855 L446.001,316.855 L446.001,303.937 ZM415.922,317.295 C410.203,317.295 405.844,313.096 405.844,305.977 C405.844,298.538 410.403,294.339 416.242,294.339 C422.281,294.339 426.240,298.898 426.240,305.657 C426.240,313.895 420.881,317.295 415.922,317.295 ZM416.082,297.818 C412.122,297.818 410.603,302.057 410.603,305.857 C410.603,310.176 412.642,313.815 416.042,313.815 C419.401,313.815 421.481,310.176 421.481,305.777 C421.481,302.137 419.961,297.818 416.082,297.818 ZM384.720,304.257 C384.720,300.578 383.520,298.138 380.720,298.138 C378.601,298.138 376.441,300.058 376.441,303.257 L376.441,316.855 L371.882,316.855 L371.882,303.577 C371.882,300.498 370.722,298.138 368.042,298.138 C365.963,298.138 363.603,300.018 363.603,303.497 L363.603,316.855 L359.044,316.855 L359.044,301.018 C359.044,298.538 358.964,296.698 358.884,294.819 L362.883,294.819 L363.123,298.058 L363.243,298.058 C364.323,296.218 366.323,294.339 369.682,294.339 C372.482,294.339 374.601,295.898 375.521,298.378 L375.601,298.378 C377.081,295.938 379.241,294.339 382.400,294.339 C385.679,294.339 389.279,296.578 389.279,303.537 L389.279,316.855 L384.720,316.855 L384.720,304.257 ZM347.362,313.655 L347.242,313.655 C346.322,315.175 344.163,317.295 340.603,317.295 C336.804,317.295 333.485,314.935 333.485,307.896 L333.485,294.779 L338.124,294.779 L338.124,307.137 C338.124,310.936 339.204,313.455 342.243,313.455 C344.363,313.455 346.842,311.776 346.842,308.456 L346.842,294.819 L351.482,294.819 L351.482,310.536 C351.482,313.016 351.601,315.095 351.682,316.855 L347.602,316.855 L347.362,313.655 ZM327.003,298.778 C323.884,298.778 321.924,301.338 321.924,305.177 L321.924,316.855 L317.285,316.855 L317.285,301.537 C317.285,298.978 317.245,296.858 317.125,294.819 L321.164,294.819 L321.324,298.858 L321.484,298.858 C322.484,296.058 324.804,294.339 327.203,294.339 C327.643,294.339 327.963,294.379 328.363,294.459 L328.363,298.898 C327.963,298.818 327.523,298.778 327.003,298.778 ZM300.764,317.295 C295.045,317.295 290.685,313.096 290.685,305.977 C290.685,298.538 295.245,294.339 301.084,294.339 C307.123,294.339 311.082,298.898 311.082,305.657 C311.082,313.895 305.723,317.295 300.764,317.295 ZM300.924,297.818 C296.964,297.818 295.445,302.057 295.445,305.857 C295.445,310.176 297.484,313.815 300.884,313.815 C304.243,313.815 306.323,310.176 306.323,305.777 C306.323,302.137 304.803,297.818 300.924,297.818 ZM274.244,299.578 L284.723,299.578 L284.723,303.417 L274.244,303.417 L274.244,316.855 L269.605,316.855 L269.605,286.260 L285.522,286.260 L285.522,290.139 L274.244,290.139 L274.244,299.578 ZM246.645,284.780 L251.285,284.780 L251.285,316.855 L246.645,316.855 L246.645,284.780 ZM235.004,314.295 L234.884,314.295 C233.644,316.015 231.484,317.295 228.725,317.295 C224.605,317.295 222.246,314.255 222.246,310.856 C222.246,305.377 227.005,302.657 234.564,302.657 C234.564,301.018 234.564,297.738 230.124,297.738 C228.165,297.738 226.165,298.338 224.765,299.258 L223.806,296.178 C225.365,295.179 227.965,294.339 230.924,294.339 C237.403,294.339 239.203,298.618 239.203,303.297 L239.203,311.616 C239.203,313.495 239.243,315.415 239.523,316.855 L235.324,316.855 L235.004,314.295 ZM234.684,305.777 C231.044,305.777 226.845,306.457 226.845,310.376 C226.845,312.816 228.365,313.895 230.084,313.895 C232.604,313.895 234.684,311.976 234.684,309.416 L234.684,305.777 ZM211.683,303.937 C211.683,300.818 210.644,298.178 207.484,298.178 C205.204,298.178 202.765,300.058 202.765,303.577 L202.765,316.855 L198.126,316.855 L198.126,301.018 C198.126,298.578 198.046,296.698 197.966,294.819 L202.005,294.819 L202.245,298.098 L202.365,298.098 C203.405,296.218 205.724,294.339 209.044,294.339 C212.483,294.339 216.323,296.578 216.323,303.377 L216.323,316.855 L211.683,316.855 L211.683,303.937 ZM181.604,317.295 C175.885,317.295 171.526,313.096 171.526,305.977 C171.526,298.538 176.085,294.339 181.924,294.339 C187.963,294.339 191.923,298.898 191.923,305.657 C191.923,313.895 186.563,317.295 181.604,317.295 ZM181.764,297.818 C177.805,297.818 176.285,302.057 176.285,305.857 C176.285,310.176 178.325,313.815 181.724,313.815 C185.084,313.815 187.163,310.176 187.163,305.777 C187.163,302.137 185.644,297.818 181.764,297.818 ZM163.045,291.419 C161.446,291.419 160.366,290.219 160.366,288.740 C160.366,287.180 161.486,286.020 163.085,286.020 C164.685,286.020 165.765,287.180 165.765,288.740 C165.765,290.219 164.725,291.419 163.045,291.419 ZM149.885,309.456 C149.885,312.176 150.725,313.495 152.685,313.495 C153.605,313.495 154.165,313.376 154.725,313.216 L154.885,316.775 C154.085,317.095 152.845,317.295 151.285,317.295 C149.445,317.295 147.886,316.695 146.926,315.615 C145.806,314.415 145.286,312.576 145.286,309.696 L145.286,298.298 L142.167,298.298 L142.167,294.819 L145.286,294.819 L145.286,290.819 L149.885,289.380 L149.885,294.819 L155.124,294.819 L155.124,298.298 L149.885,298.298 L149.885,309.456 ZM132.724,314.295 L132.605,314.295 C131.365,316.015 129.205,317.295 126.446,317.295 C122.326,317.295 119.967,314.255 119.967,310.856 C119.967,305.377 124.726,302.657 132.285,302.657 C132.285,301.018 132.285,297.738 127.845,297.738 C125.886,297.738 123.886,298.338 122.486,299.258 L121.526,296.178 C123.086,295.179 125.686,294.339 128.645,294.339 C135.124,294.339 136.924,298.618 136.924,303.297 L136.924,311.616 C136.924,313.495 136.964,315.415 137.244,316.855 L133.044,316.855 L132.724,314.295 ZM132.405,305.777 C128.765,305.777 124.566,306.457 124.566,310.376 C124.566,312.816 126.086,313.895 127.805,313.895 C130.325,313.895 132.405,311.976 132.405,309.416 L132.405,305.777 ZM109.404,303.937 C109.404,300.818 108.364,298.178 105.205,298.178 C102.925,298.178 100.486,300.058 100.486,303.577 L100.486,316.855 L95.846,316.855 L95.846,301.018 C95.846,298.578 95.766,296.698 95.686,294.819 L99.726,294.819 L99.966,298.098 L100.086,298.098 C101.126,296.218 103.445,294.339 106.765,294.339 C110.204,294.339 114.043,296.578 114.043,303.377 L114.043,316.855 L109.404,316.855 L109.404,303.937 ZM89.285,298.778 C86.166,298.778 84.206,301.338 84.206,305.177 L84.206,316.855 L79.567,316.855 L79.567,301.537 C79.567,298.978 79.527,296.858 79.407,294.819 L83.446,294.819 L83.606,298.858 L83.766,298.858 C84.766,296.058 87.086,294.339 89.485,294.339 C89.925,294.339 90.245,294.379 90.645,294.459 L90.645,298.898 C90.245,298.818 89.805,298.778 89.285,298.778 ZM59.366,306.897 C59.486,311.856 62.566,313.735 66.045,313.735 C68.485,313.735 70.165,313.296 71.604,312.696 L72.364,315.975 C70.804,316.695 68.365,317.295 65.365,317.295 C58.727,317.295 54.887,312.856 54.887,306.137 C54.887,299.578 58.567,294.339 64.805,294.339 C71.004,294.339 73.484,299.498 73.484,304.937 C73.484,305.697 73.444,306.337 73.364,306.897 L59.366,306.897 ZM64.486,297.658 C61.086,297.658 59.646,301.018 59.406,303.577 L69.085,303.577 C69.125,300.938 68.045,297.658 64.486,297.658 ZM45.406,309.456 C45.406,312.176 46.246,313.495 48.206,313.495 C49.126,313.495 49.686,313.376 50.246,313.216 L50.406,316.775 C49.606,317.095 48.366,317.295 46.806,317.295 C44.967,317.295 43.407,316.695 42.447,315.615 C41.327,314.415 40.807,312.576 40.807,309.696 L40.807,298.298 L37.688,298.298 L37.688,294.819 L40.807,294.819 L40.807,290.819 L45.406,289.380 L45.406,294.819 L50.646,294.819 L50.646,298.298 L45.406,298.298 L45.406,309.456 ZM27.805,303.937 C27.805,300.818 26.765,298.178 23.606,298.178 C21.326,298.178 18.887,300.058 18.887,303.577 L18.887,316.855 L14.247,316.855 L14.247,301.018 C14.247,298.578 14.167,296.698 14.088,294.819 L18.127,294.819 L18.367,298.098 L18.487,298.098 C19.527,296.218 21.846,294.339 25.166,294.339 C28.605,294.339 32.444,296.578 32.444,303.377 L32.444,316.855 L27.805,316.855 L27.805,303.937 ZM2.088,284.780 L6.727,284.780 L6.727,316.855 L2.088,316.855 L2.088,284.780 ZM165.365,316.855 L160.726,316.855 L160.726,294.779 L165.365,294.779 L165.365,316.855 ZM585.881,316.855 L581.242,316.855 L581.242,294.779 L585.881,294.779 L585.881,316.855 ZM817.078,316.855 L812.439,316.855 L812.439,294.779 L817.078,294.779 L817.078,316.855 ZM886.117,316.855 L881.478,316.855 L881.478,294.779 L886.117,294.779 L886.117,316.855 Z"/>
</svg>
