<svg 
 xmlns="http://www.w3.org/2000/svg"
 xmlns:xlink="http://www.w3.org/1999/xlink"
 width="121.5px" height="42.5px">
<defs>
<linearGradient id="PSgrad_0" x1="0%" x2="100%" y1="0%" y2="0%">
  <stop offset="0%" stop-color="rgb(109,214,236)" stop-opacity="1" />
  <stop offset="100%" stop-color="rgb(220,125,251)" stop-opacity="1" />
</linearGradient>

</defs>
<path fill-rule="evenodd"  stroke-width="1px" stroke-linecap="butt" stroke-linejoin="miter" fill="none"
 d="M6.500,1.469 L114.500,1.469 C117.814,1.469 120.500,4.155 120.500,7.469 L120.500,35.469 C120.500,38.782 117.814,41.469 114.500,41.469 L6.500,41.469 C3.186,41.469 0.500,38.782 0.500,35.469 L0.500,7.469 C0.500,4.155 3.186,1.469 6.500,1.469 Z"/>
<path fill-rule="evenodd"  fill="url(#PSgrad_0)"
 d="M88.653,20.246 C87.585,19.694 86.583,19.076 85.647,18.392 L85.647,19.742 L76.701,19.742 L76.701,18.320 C75.729,19.004 74.685,19.652 73.569,20.264 L72.651,18.608 C75.819,17.012 78.441,15.044 80.517,12.704 L81.777,12.704 C84.057,15.200 86.661,17.162 89.589,18.590 L88.653,20.246 ZM81.147,14.234 C79.971,15.662 78.579,16.958 76.971,18.122 L85.287,18.122 C83.727,16.958 82.347,15.662 81.147,14.234 ZM69.825,23.252 C67.197,22.304 65.301,21.074 64.137,19.562 L60.951,19.562 C59.499,21.086 57.417,22.334 54.705,23.306 L53.931,21.794 C55.947,21.218 57.555,20.474 58.755,19.562 L54.291,19.562 L54.291,18.014 L60.303,18.014 C60.579,17.642 60.813,17.252 61.005,16.844 C59.025,16.916 57.417,16.964 56.181,16.988 L55.929,15.512 C56.961,15.368 58.419,14.390 60.303,12.578 L61.995,13.154 C61.023,14.114 60.099,14.894 59.223,15.494 C61.419,15.410 63.363,15.314 65.055,15.206 C64.767,14.942 64.311,14.558 63.687,14.054 L65.001,13.226 C66.741,14.546 68.091,15.710 69.051,16.718 L67.629,17.708 C67.305,17.324 66.945,16.946 66.549,16.574 L62.751,16.772 C62.559,17.240 62.355,17.654 62.139,18.014 L70.149,18.014 L70.149,19.562 L66.009,19.562 C67.065,20.450 68.583,21.158 70.563,21.686 L69.825,23.252 ZM49.737,27.428 C49.737,28.580 49.113,29.156 47.865,29.156 L46.299,29.156 L45.849,27.536 C46.569,27.584 47.073,27.608 47.361,27.608 C47.829,27.608 48.063,27.344 48.063,26.816 L48.063,21.416 L45.903,21.416 L45.903,21.920 C45.867,24.980 45.309,27.464 44.229,29.372 L42.987,28.238 C43.803,26.642 44.229,24.572 44.265,22.028 L44.265,21.416 L42.591,21.416 L42.591,27.410 C42.591,28.574 42.051,29.156 40.971,29.156 L39.333,29.156 L38.901,27.536 C39.621,27.584 40.137,27.608 40.449,27.608 C40.797,27.608 40.971,27.350 40.971,26.834 L40.971,21.416 L38.811,21.416 L38.811,21.884 C38.775,24.992 38.139,27.494 36.903,29.390 L35.643,28.220 C36.603,26.624 37.101,24.554 37.137,22.010 L37.137,21.416 L35.121,21.416 L35.121,19.778 L37.137,19.778 L37.137,13.334 L42.591,13.334 L42.591,19.778 L44.265,19.778 L44.265,13.334 L49.737,13.334 L49.737,19.778 L51.573,19.778 L51.573,21.416 L49.737,21.416 L49.737,27.428 ZM40.971,14.882 L38.811,14.882 L38.811,19.778 L40.971,19.778 L40.971,14.882 ZM48.063,14.882 L45.903,14.882 L45.903,19.778 L48.063,19.778 L48.063,14.882 ZM21.135,27.068 L26.121,27.068 L26.121,22.802 L22.089,22.802 L22.089,21.164 L26.121,21.164 L26.121,17.312 L21.585,17.312 L21.585,15.638 L26.193,15.638 C25.857,14.714 25.491,13.868 25.095,13.100 L26.679,12.650 C27.183,13.694 27.585,14.684 27.885,15.620 L27.831,15.638 L32.295,15.638 L32.295,17.312 L27.831,17.312 L27.831,21.164 L31.809,21.164 L31.809,22.802 L27.831,22.802 L27.831,27.068 L32.673,27.068 L32.673,28.742 L21.135,28.742 L21.135,27.068 ZM16.689,14.072 L17.931,12.902 C19.155,13.790 20.205,14.690 21.081,15.602 L19.875,16.826 C19.119,15.962 18.057,15.044 16.689,14.072 ZM20.487,19.850 L19.281,21.056 C18.525,20.180 17.523,19.268 16.275,18.320 L17.499,17.132 C18.687,18.032 19.683,18.938 20.487,19.850 ZM20.973,22.838 C20.193,25.046 19.299,27.170 18.291,29.210 L16.581,28.454 C17.649,26.438 18.603,24.356 19.443,22.208 L20.973,22.838 ZM57.081,23.000 C59.373,22.232 61.059,21.206 62.139,19.922 L63.471,20.714 C62.259,22.226 60.381,23.432 57.837,24.332 L57.081,23.000 ZM65.757,22.316 C63.585,24.716 60.897,26.204 57.693,26.780 L56.721,25.484 C60.057,24.944 62.625,23.594 64.425,21.434 L65.757,22.316 ZM66.801,22.730 L68.295,23.396 C66.639,26.348 63.033,28.412 57.477,29.588 L56.505,28.256 C61.881,27.140 65.313,25.298 66.801,22.730 ZM88.455,23.396 L80.067,23.396 C79.263,24.872 78.327,26.174 77.259,27.302 C79.827,27.158 82.323,26.942 84.747,26.654 C84.243,25.994 83.649,25.286 82.965,24.530 L84.297,23.684 C85.917,25.436 87.183,26.984 88.095,28.328 L86.673,29.336 C86.313,28.784 85.989,28.304 85.701,27.896 C82.917,28.328 79.413,28.670 75.189,28.922 L74.721,27.446 C75.117,27.338 75.411,27.182 75.603,26.978 C76.587,25.838 77.415,24.644 78.087,23.396 L73.875,23.396 L73.875,21.740 L88.455,21.740 L88.455,23.396 Z"/>
<path fill-rule="evenodd"  fill="url(#PSgrad_0)"
 d="M97.491,21.584 L103.351,21.584 L101.135,23.801 L102.702,23.801 L105.472,21.030 L102.702,18.259 L101.135,18.259 L103.351,20.476 L97.491,20.476 L97.491,21.584 Z"/>
</svg>
